# xmcd
#
# Track frame offsets:
#	150
#	13750
#	23194
#	36765
#	45662
#	56484
#	66963
#	78554
#	87877
#	98185
#	107879
#	120384
#	137063
#	152113
#	165182
#	173926
#	186530
#	195750
#	206897
#	216037
#	225668
#	239159
#	252923
#	271370
#	282164
#	293219
#
# Disc length: 4100 seconds
#
# Revision: 2
# Processed by: cddbd v1.5.2PL0 Copyright (c) Steve Scherf et al.
# Submitted via: EZCDAudioConverter 1.3.4.1
#
DISCID=7710021a
DTITLE=John's Children - A Strange Affair 1/2
DYEAR=2013
DGENRE=
TTITLE0=The Love I Thought I'd Found
TTITLE1=Strange Affair
TTITLE2=Just What You Want - Just What You'll Get
TTITLE3=But She's Mine
TTITLE4=Desdemona
TTITLE5=Remember Thomas À Becket
TTITLE6=Midsummer Night's Scene
TTITLE7=Sara, Crazy Child
TTITLE8=Come And Play With Me In The Garden
TTITLE9=Go-Go Girl
TTITLE10=Jagged Time Lapse
TTITLE11=Arthur Green
TTITLE12=It's Been A Long Time
TTITLE13=Fool From Upper Eden
TTITLE14=Another Lucky Lie
TTITLE15=You Can't Do That
TTITLE16=Cornflake Zoo
TTITLE17=Help!
TTITLE18=Casbah Candy
TTITLE19=Hippy Gumbo
TTITLE20=Down Down
TTITLE21=Cold On Me
TTITLE22=Forgive Me If I'm Wrong
TTITLE23=Mustang Ford
TTITLE24=Not The Sort Of Girl You Take To Bed
TTITLE25=Sally Was An Angel [Vocal]
EXTD=
EXTT0=
EXTT1=
EXTT2=
EXTT3=
EXTT4=
EXTT5=
EXTT6=
EXTT7=
EXTT8=
EXTT9=
EXTT10=
EXTT11=
EXTT12=
EXTT13=
EXTT14=
EXTT15=
EXTT16=
EXTT17=
EXTT18=
EXTT19=
EXTT20=
EXTT21=
EXTT22=
EXTT23=
EXTT24=
EXTT25=
PLAYORDER=
